<?xml version="1.0" encoding="UTF-8"?>
<svg version="1.1" xmlns="http://www.w3.org/2000/svg" width="348" height="348">
<path d="M0 0 C14.85 0 29.7 0 45 0 C43.75607828 6.21960859 42.63359551 11.59410303 40.671875 17.48828125 C40.33319397 18.5168927 40.33319397 18.5168927 39.9876709 19.56628418 C39.50034628 21.04558293 39.01061774 22.52409158 38.51867676 24.00186157 C37.17584188 28.03841639 35.85334068 32.08161165 34.53125 36.125 C34.25033508 36.98341995 33.96942017 37.8418399 33.67999268 38.72627258 C27.9111036 56.41670406 22.50273265 74.22617354 17 92 C40.43 92 63.86 92 88 92 C88.66 89.03 89.32 86.06 90 83 C90.43430508 81.38656855 90.88795319 79.7779889 91.375 78.1796875 C91.63265137 77.33124268 91.89030273 76.48279785 92.15576172 75.60864258 C92.57365967 74.2554895 92.57365967 74.2554895 93 72.875 C93.45076904 71.4048645 93.45076904 71.4048645 93.91064453 69.9050293 C97.51415842 58.22482997 101.29202385 46.60025781 105.06694031 34.97463989 C106.59448517 30.26507568 108.10383415 25.54991445 109.60546875 20.83203125 C110.02290077 19.52301515 110.44038034 18.21401421 110.85791016 16.9050293 C111.64766437 14.4267633 112.43517948 11.9477824 113.22021484 9.46801758 C113.57164551 8.3673999 113.92307617 7.26678223 114.28515625 6.1328125 C114.59332275 5.16230957 114.90148926 4.19180664 115.21899414 3.19189453 C116 1 116 1 117 0 C118.41225046 -0.0928726 119.82908934 -0.11746772 121.24438477 -0.11352539 C122.14524307 -0.11344986 123.04610138 -0.11337433 123.97425842 -0.11329651 C124.95341721 -0.10813522 125.93257599 -0.10297394 126.94140625 -0.09765625 C127.93881332 -0.0962413 128.9362204 -0.09482635 129.96385193 -0.09336853 C133.16343124 -0.08775114 136.36294169 -0.07519571 139.5625 -0.0625 C141.72591045 -0.05748724 143.88932199 -0.05292395 146.05273438 -0.04882812 C151.36851325 -0.03777607 156.68425171 -0.02102104 162 0 C160.80735842 5.72146179 159.39480379 11.28500447 157.59375 16.84375 C157.35729263 17.58506668 157.12083527 18.32638336 156.87721252 19.09016418 C156.36103458 20.70695089 155.84307227 22.32316877 155.32351685 23.93887329 C154.17318258 27.51639794 153.03167353 31.0967229 151.88941956 34.67683411 C151.26440753 36.63546232 150.63893759 38.59394446 150.01304626 40.55229187 C146.38439856 51.91044192 142.80131237 63.28292616 139.21591187 74.65478516 C132.84101481 94.87094235 126.44517403 115.08030004 120.00537109 135.27587891 C117.08256474 144.44363643 114.17241122 153.61517717 111.28125 162.79296875 C110.37510195 165.66565053 109.46876822 168.53827368 108.56240845 171.41088867 C107.98329944 173.24875026 107.40530032 175.08696198 106.82846069 176.92553711 C106.03807369 179.44470535 105.24403259 181.96269438 104.44921875 184.48046875 C104.21452881 185.23224899 103.97983887 185.98402924 103.73803711 186.7585907 C102.11375982 191.88624018 102.11375982 191.88624018 101 193 C99.61839885 193.0927833 98.23211962 193.11747043 96.84741211 193.11352539 C95.96657455 193.11344986 95.085737 193.11337433 94.1782074 193.11329651 C93.22092239 193.10813522 92.26363739 193.10297394 91.27734375 193.09765625 C90.30213272 193.0962413 89.32692169 193.09482635 88.32215881 193.09336853 C85.19390857 193.08775133 82.06572877 193.07519593 78.9375 193.0625 C76.82226666 193.05748722 74.70703219 193.05292393 72.59179688 193.04882812 C67.39450704 193.03777631 62.19725855 193.02102146 57 193 C55.81505588 189.44516763 56.26089046 188.40548102 57.37109375 184.8984375 C57.69384277 183.86428711 58.0165918 182.83013672 58.34912109 181.76464844 C58.88786865 180.08677246 58.88786865 180.08677246 59.4375 178.375 C59.80439941 177.21000977 60.17129883 176.04501953 60.54931641 174.84472656 C61.6912295 171.22712245 62.84527737 167.61353254 64 164 C64.65564271 161.92469854 65.31062526 159.84918837 65.96484375 157.7734375 C71.13969507 141.45519468 76.58531406 125.24405782 82 109 C58.57 109 35.14 109 11 109 C10.01 112.63 9.02 116.26 8 120 C6.9373487 123.40431846 5.85614898 126.79752448 4.75 130.1875 C0.40856242 143.61720097 -3.79517444 157.08951547 -8 170.5625 C-8.51729675 172.21963516 -8.51729675 172.21963516 -9.04504395 173.9102478 C-11.03117122 180.27314331 -13.0157699 186.63651205 -15 193 C-30.18 193 -45.36 193 -61 193 C-59.7311964 187.29038382 -58.4724852 182.00478851 -56.71484375 176.484375 C-56.49780792 175.79845276 -56.28077209 175.11253052 -56.05715942 174.40582275 C-55.35409174 172.18609172 -54.64583631 169.96805474 -53.9375 167.75 C-53.1949196 165.41098132 -52.45366003 163.07154699 -51.71257019 160.73205566 C-51.21071808 159.14785795 -50.70844831 157.56379249 -50.20576477 155.9798584 C-48.58674479 150.8733864 -46.99014734 145.76050424 -45.4140625 140.640625 C-45.21267166 139.98713074 -45.01128082 139.33363647 -44.80378723 138.66033936 C-43.86391879 135.6088503 -42.92697954 132.55650102 -41.99389648 129.50292969 C-39.86379065 122.58759686 -37.5445109 115.77404969 -35 109 C-36.25135742 109.01047363 -37.50271484 109.02094727 -38.79199219 109.03173828 C-43.4361688 109.06794765 -48.08033293 109.09090396 -52.72460938 109.10986328 C-54.73439635 109.1199187 -56.7441687 109.13356485 -58.75390625 109.15087891 C-61.64326588 109.17514724 -64.53243202 109.18648771 -67.421875 109.1953125 C-68.31992859 109.20563507 -69.21798218 109.21595764 -70.14324951 109.22659302 C-70.98381897 109.22674408 -71.82438843 109.22689514 -72.69042969 109.22705078 C-73.42767273 109.231492 -74.16491577 109.23593323 -74.92449951 109.24050903 C-77.30519726 108.96463374 -78.93016431 108.17901432 -81 107 C-80.35814255 104.68632778 -79.71172608 102.3741043 -79.0625 100.0625 C-78.88009766 99.40314453 -78.69769531 98.74378906 -78.50976562 98.06445312 C-77.11328125 93.11328125 -77.11328125 93.11328125 -76 92 C-74.52645652 91.90695982 -73.04849409 91.88253735 -71.57202148 91.88647461 C-70.63112167 91.88655014 -69.69022186 91.88662567 -68.72080994 91.88670349 C-67.69790359 91.89186478 -66.67499725 91.89702606 -65.62109375 91.90234375 C-64.57929459 91.9037587 -63.53749542 91.90517365 -62.46412659 91.90663147 C-59.12188906 91.9122492 -55.77971743 91.9248047 -52.4375 91.9375 C-50.17773534 91.94251272 -47.91796963 91.94707602 -45.65820312 91.95117188 C-40.10544609 91.96222439 -34.55272775 91.97897976 -29 92 C-28.81300789 91.12186142 -28.81300789 91.12186142 -28.62223816 90.22598267 C-27.68469148 85.90232865 -26.68133497 81.66890653 -25.30078125 77.4609375 C-24.98254395 76.48108887 -24.66430664 75.50124023 -24.33642578 74.49169922 C-23.99853027 73.46318848 -23.66063477 72.43467773 -23.3125 71.375 C-20.66957283 63.23085999 -18.08742391 55.07550226 -15.625 46.875 C-12.9567229 38.02875624 -10.18840505 29.21659554 -7.3637085 20.41925049 C-6.91604495 19.02453955 -6.46945538 17.62948339 -6.02398682 16.23406982 C-5.39831386 14.27602262 -4.76820325 12.31946082 -4.13671875 10.36328125 C-3.77280029 9.23188721 -3.40888184 8.10049316 -3.03393555 6.93481445 C-2 4 -2 4 0 0 Z " fill="#000000" transform="translate(87,17)"/>
<path d="M0 0 C0.33 0.66 0.66 1.32 1 2 C-0.40895236 4.61788643 -1.86243091 7.11045672 -3.4375 9.625 C-3.87126953 10.33140625 -4.30503906 11.0378125 -4.75195312 11.765625 C-5.82748132 13.51483568 -6.91283725 15.25799654 -8 17 C-8.75337646 16.6146106 -8.75337646 16.6146106 -9.52197266 16.22143555 C-26.22743693 7.76208089 -42.65336639 1.23136567 -61.46875 7.09765625 C-69.91044649 10.10696472 -75.40054502 14.14042212 -80.17578125 21.9140625 C-82.22384677 27.09731837 -81.62384229 33.22697454 -79.8125 38.375 C-73.35064273 47.73355191 -63.41536056 51.87053817 -53.4564209 56.67474365 C-32.64116872 66.76465377 -13.08221242 76.56132821 -4.1875 99.0546875 C0.3256587 113.6597705 -4.18383032 130.8608202 -11 144 C-13.45320168 147.8528178 -16.1433577 151.43882935 -19 155 C-19.55558594 155.72058594 -20.11117187 156.44117188 -20.68359375 157.18359375 C-32.10830632 171.23845597 -49.47568339 178.78411067 -67.046875 181.46484375 C-69.70298835 181.73870854 -72.3319196 181.90500643 -75 182 C-75.77085937 182.03996094 -76.54171875 182.07992187 -77.3359375 182.12109375 C-100.29924422 182.76955922 -120.94250025 175.00522618 -139 161 C-137.52869627 156.6426774 -135.16919385 153.28065866 -132.375 149.6875 C-131.95476562 149.13771484 -131.53453125 148.58792969 -131.1015625 148.02148438 C-130.07279961 146.67707832 -129.0370991 145.33798587 -128 144 C-124.8825356 145.43234851 -122.08235256 147.22332018 -119.23022461 149.12255859 C-102.20026776 160.42638669 -84.84216822 165.86562688 -64.25 161.9375 C-54.17906369 159.28985827 -45.96412647 153.52989028 -40 145 C-36.79137943 139.41078998 -36.14540519 134.31008962 -37 128 C-39.36744001 119.36673545 -46.46657228 114.00891436 -53.88671875 109.66015625 C-58.54594873 107.02246908 -63.27135924 104.51037878 -68 102 C-70.65699756 100.58076485 -73.31093868 99.15644591 -75.9597168 97.72192383 C-77.63907121 96.81254262 -79.32256907 95.91075246 -81.01098633 95.01831055 C-88.86404547 90.773173 -95.92342 85.56927568 -102 79 C-102.48082031 78.50113281 -102.96164063 78.00226563 -103.45703125 77.48828125 C-113.04597891 67.07395581 -115.47054291 55.5125595 -115.25 41.71484375 C-114.20883767 26.24382226 -105.93915724 12.72698928 -94.43457031 2.62548828 C-68.23752644 -18.52123097 -27.99756662 -17.73179219 0 0 Z " fill="#000000" transform="translate(341,129)"/>
</svg>
